<svg width="24" height="24" viewBox="0 0 24 24" fill="none" xmlns="http://www.w3.org/2000/svg">
<path fill-rule="evenodd" clip-rule="evenodd" d="M12.3544 5.71729L8.76661 6.39646C8.39749 6.46633 8.13043 6.78706 8.13043 7.1605V14.4661C7.88565 14.3801 7.62224 14.3333 7.34783 14.3333C6.05116 14.3333 5 15.378 5 16.6667C5 17.9553 6.05116 19 7.34783 19C8.64449 19 9.69565 17.9553 9.69565 16.6667V7.80411L12.7132 7.23288C12.3186 6.83394 12.1954 6.23674 12.3544 5.71729ZM15.0205 6.79613L14.5615 6.88301L13.6658 6.65908C13.1805 6.53776 13.1544 5.85785 13.6289 5.69967L15.1817 5.18208L16.071 5.01374C16.3 4.97038 16.5367 5.03081 16.7163 5.17856C16.7697 5.2225 16.8165 5.27279 16.8558 5.32787L16.1052 5.92834L15.0218 6.79505C15.0214 6.79541 15.0209 6.79577 15.0205 6.79613ZM15.4348 9.92458V12.392C15.19 12.306 14.9266 12.2593 14.6522 12.2593C13.3555 12.2593 12.3043 13.3039 12.3043 14.5926C12.3043 15.8813 13.3555 16.9259 14.6522 16.9259C15.9488 16.9259 17 15.8813 17 14.5926V10.0381C16.5059 10.2861 15.8893 10.2446 15.4348 9.92458ZM17 8.21322L16.7856 8.85636C16.6274 9.33092 15.9475 9.30481 15.8262 8.81952L15.5956 7.8971C15.571 7.79855 15.5772 7.69619 15.6114 7.60313C15.6172 7.58739 15.6238 7.57193 15.6312 7.55679C15.6472 7.52392 15.6669 7.4926 15.6902 7.46348L16.5569 6.38009L17 5.82628V8.21322Z" fill="white"/>
</svg>
