<svg width="200" height="200" viewBox="0 0 200 200" fill="none" xmlns="http://www.w3.org/2000/svg">
<path d="M103.967 0.0804082C48.779 -2.11322 2.26488 40.8454 0.0803921 96.0335C-2.11324 151.222 40.8545 197.727 96.0335 199.92C151.222 202.114 197.727 159.155 199.92 103.967C202.105 48.779 159.146 2.2649 103.967 0.0804082ZM146.176 146.578C144.933 148.772 142.511 149.869 140.153 149.54C139.431 149.439 138.709 149.202 138.032 148.818C124.816 141.295 110.411 136.396 95.22 134.258C80.0291 132.119 64.8291 132.859 50.0495 136.451C46.8413 137.228 43.6148 135.263 42.8379 132.055C42.061 128.847 44.0261 125.62 47.2343 124.843C63.4855 120.895 80.1936 120.081 96.8835 122.43C113.573 124.779 129.404 130.163 143.946 138.435C146.807 140.071 147.812 143.708 146.185 146.578H146.176ZM159.32 120.328C157.282 124.094 152.565 125.501 148.799 123.463C133.334 115.1 116.59 109.607 99.0315 107.139C81.4733 104.671 63.8694 105.338 46.6951 109.113C45.7628 109.314 44.8396 109.351 43.9439 109.223C40.8271 108.784 38.1582 106.462 37.4453 103.199C36.5221 99.0132 39.1727 94.8727 43.3589 93.9496C62.343 89.7725 81.8023 89.0322 101.198 91.7559C120.584 94.4797 139.093 100.549 156.185 109.799C159.96 111.837 161.358 116.544 159.32 120.319V120.328ZM173.889 90.7322C171.97 94.4248 167.975 96.3351 164.082 95.7867C163.031 95.6405 161.998 95.3114 161.002 94.7996C142.996 85.431 123.6 79.2431 103.355 76.4005C83.1093 73.5579 62.7543 74.1612 42.8654 78.2011C37.692 79.2522 32.6558 75.9069 31.6047 70.7428C30.5536 65.5695 33.8989 60.5332 39.0631 59.4821C61.0908 55.0126 83.6121 54.3454 106.015 57.4896C128.417 60.6338 149.878 67.4889 169.822 77.8629C174.502 80.2942 176.32 86.0616 173.889 90.7414V90.7322Z" fill="#FFFFFF"/>
</svg>
